# xmcd CD database file
#
# Track frame offsets:
#	151
#	20551
#	45707
#	64510
#	83841
#	111526
#	144472
#	167310
#	185899
#	205546
#
# Disc length: 3047 seconds
#
# Revision: 5
# Processed by: cddbd v1.5.2PL0 Copyright (c) Steve Scherf et al.
# Submitted via: CDex 1.70beta2
#
DISCID=850be50a
DTITLE=Oumou Sangare - Oumou [CD 1)
DYEAR=2003
DGENRE=Afro
TTITLE0=Ah Ndiya
TTITLE1=Wayeina
TTITLE2=Mogo Te Diya Bee Ye
TTITLE3=Magnoumako
TTITLE4=Dugu Kamalemba
TTITLE5=Saa Magni
TTITLE6=Woula Bara Diagna
TTITLE7=Yala
TTITLE8=Djorolen (Remix)
TTITLE9=Denko
EXTD=YEAR: 2003
EXTT0=
EXTT1=
EXTT2=
EXTT3=
EXTT4=
EXTT5=
EXTT6=
EXTT7=
EXTT8=
EXTT9=
PLAYORDER=
